<?xml version="1.0" encoding="UTF-8" standalone="no"?>
<svg
   xmlns:dc="http://purl.org/dc/elements/1.1/"
   xmlns:cc="http://creativecommons.org/ns#"
   xmlns:rdf="http://www.w3.org/1999/02/22-rdf-syntax-ns#"
   xmlns:svg="http://www.w3.org/2000/svg"
   xmlns="http://www.w3.org/2000/svg"
   xmlns:sodipodi="http://sodipodi.sourceforge.net/DTD/sodipodi-0.dtd"
   xmlns:inkscape="http://www.inkscape.org/namespaces/inkscape"
   version="1.0"
   width="800.000000pt"
   height="261.000000pt"
   viewBox="0 0 800.000000 261.000000"
   preserveAspectRatio="xMidYMid meet"
   id="svg4383"
   inkscape:version="0.91 r13725"
   sodipodi:docname="logo_padinet_coloured.svg">
  <defs
     id="defs4555" />
  <sodipodi:namedview
     pagecolor="#ffffff"
     bordercolor="#666666"
     borderopacity="1"
     objecttolerance="10"
     gridtolerance="10"
     guidetolerance="10"
     inkscape:pageopacity="0"
     inkscape:pageshadow="2"
     inkscape:window-width="1859"
     inkscape:window-height="1056"
     id="namedview4553"
     showgrid="false"
     inkscape:zoom="1.387"
     inkscape:cx="280.42025"
     inkscape:cy="163.125"
     inkscape:window-x="61"
     inkscape:window-y="24"
     inkscape:window-maximized="1"
     inkscape:current-layer="svg4383" />
  <metadata
     id="metadata4385">
Created by potrace 1.13, written by Peter Selinger 2001-2015
<rdf:RDF>
  <cc:Work
     rdf:about="">
    <dc:format>image/svg+xml</dc:format>
    <dc:type
       rdf:resource="http://purl.org/dc/dcmitype/StillImage" />
    <dc:title></dc:title>
  </cc:Work>
</rdf:RDF>
</metadata>
  <g
     transform="translate(0.000000,261.000000) scale(0.100000,-0.100000)"
     fill="#000000"
     stroke="none"
     id="g4387">
    <g
       id="g4389">
      <path
         d="M778 2593 c-44 -50 -53 -85 -53 -203 0 -98 3 -121 22 -155 l21 -41 -23 -22 c-31 -30 -35 -28 -35 13 0 19 -6 49 -14 67 -8 18 -22 50 -31 71 -45 105 -125 140 -165 75 -22 -37 -27 -112 -9 -168 5 -19 12 -43 14 -52 6 -26 54 -120 72 -140 13 -14 13 -19 -2 -42 -10 -14 -20 -26 -24 -26 -3 0 -22 28 -41 61 -44 77 -133 161 -188 177 -134 40 -118 -139 25 -283 24 -23 62 -52 86 -65 l43 -23 -19 -42 -19 -41 -51 48 c-92 87 -222 138 -277 108 -68 -37 -25 -137 93 -219 48 -33 151 -81 173 -81 9 0 14 -11 14 -31 0 -27 -3 -30 -22 -23 -13 3 -34 12 -48 19 -14 6 -58 18 -98 25 -58 11 -83 11 -124 1 -53 -12 -98 -43 -98 -68 0 -69 154 -143 297 -143 l73 0 0 -51 c0 -49 -1 -51 -22 -44 -13 4 -59 10 -103 12 -130 8 -245 -36 -245 -93 0 -33 39 -67 98 -86 60 -20 203 -21 257 -2 43 14 55 8 55 -32 0 -18 -8 -22 -52 -28 -96 -12 -183 -52 -250 -114 -31 -29 -38 -42 -38 -72 0 -51 19 -64 95 -64 71 0 132 17 187 51 21 13 42 23 47 23 5 0 11 3 13 8 2 4 15 17 29 30 l26 23 20 -40 c16 -31 17 -41 7 -41 -31 0 -109 -34 -156 -67 -92 -66 -138 -127 -138 -182 0 -98 204 -47 325 80 l55 58 30 -32 c16 -18 30 -34 30 -37 0 -4 -16 -12 -36 -19 -45 -16 -165 -133 -193 -188 -11 -23 -21 -57 -21 -76 0 -28 6 -37 34 -52 l34 -18 66 32 c73 35 173 128 201 186 15 34 30 44 37 27 5 -13 136 -95 191 -120 84 -39 144 -58 255 -83 68 -14 82 -8 82 36 0 32 -2 35 -30 35 -69 0 -263 68 -353 124 l-47 29 49 49 c94 93 160 239 132 292 -45 84 -190 -6 -269 -166 -33 -67 -39 -74 -51 -59 -8 9 -25 28 -38 42 l-25 27 47 23 c86 43 179 155 200 241 10 41 -34 83 -78 74 -37 -8 -109 -43 -119 -60 -6 -8 -8 -8 -8 0 0 7 12 20 28 29 55 36 112 111 112 148 0 31 -37 57 -80 57 -73 0 -195 -55 -258 -117 -22 -21 -29 -15 -40 29 -13 51 -10 58 32 58 69 0 233 70 278 118 39 42 44 77 14 107 -44 44 -166 31 -287 -30 l-51 -25 5 47 c3 27 6 49 6 51 1 1 10 -2 20 -8 48 -25 202 -1 298 48 73 38 105 106 62 135 -24 17 -18 23 34 32 85 16 115 82 57 127 l-29 23 50 -4 c75 -5 135 15 149 49 9 21 9 34 1 48 -13 24 -9 27 39 31 51 4 107 36 114 65 13 51 -23 95 -109 132 l-63 26 51 53 c65 65 97 125 104 191 5 44 2 54 -18 73 -18 16 -32 21 -52 17 -71 -14 -143 -68 -204 -153 l-30 -42 -1 44 c0 57 -18 111 -49 153 -19 25 -31 32 -57 32 -19 0 -39 -7 -48 -17z m90 -30 c40 -57 55 -182 31 -266 -6 -22 -8 -41 -5 -44 9 -9 36 18 36 36 0 10 11 40 25 67 64 129 205 230 253 182 46 -46 -50 -212 -168 -289 l-25 -17 57 -17 c79 -23 113 -41 143 -76 30 -36 30 -41 7 -62 -32 -30 -103 -42 -167 -29 -32 7 -60 11 -62 9 -1 -2 17 -18 42 -35 33 -23 45 -38 45 -57 0 -37 -37 -48 -142 -42 -70 5 -100 12 -153 37 -36 17 -73 42 -82 56 -15 24 -16 24 -35 7 -19 -17 -88 -107 -88 -114 0 -2 46 -2 101 -1 74 3 116 0 153 -12 150 -47 131 -124 -33 -134 -94 -5 -178 11 -227 44 -20 14 -38 24 -39 22 -22 -25 -80 -176 -71 -185 3 -3 18 4 33 15 52 37 132 57 226 57 75 0 91 -3 102 -19 53 -72 -192 -177 -330 -141 -27 7 -51 13 -52 12 -5 -5 -24 -170 -20 -174 3 -2 24 10 48 26 119 84 309 105 309 36 0 -68 -234 -182 -327 -159 -26 7 -26 7 -19 -42 7 -51 26 -144 30 -144 1 0 25 22 53 49 85 82 234 140 277 108 29 -21 13 -64 -46 -121 -50 -48 -157 -105 -200 -107 -56 -1 -59 -9 -29 -69 56 -113 47 -109 90 -43 64 99 163 172 234 173 86 0 6 -162 -123 -251 -30 -21 -63 -39 -72 -39 -9 0 -19 -3 -22 -8 -4 -8 114 -143 125 -142 4 0 9 14 13 32 11 58 60 141 111 193 95 95 153 96 142 3 -10 -83 -87 -199 -164 -248 l-44 -28 43 -30 c102 -70 264 -137 361 -149 30 -4 47 -11 47 -19 0 -18 -16 -18 -102 2 -126 29 -280 103 -375 180 -50 41 -59 42 -67 7 -22 -84 -159 -212 -247 -228 -73 -14 -75 47 -4 145 43 59 145 140 177 140 7 0 19 4 27 9 11 7 2 23 -40 75 l-54 65 -17 -33 c-44 -87 -232 -200 -302 -182 -107 27 85 227 243 252 22 4 41 9 41 12 0 13 -65 132 -72 132 -4 0 -15 -11 -24 -24 -39 -60 -185 -126 -279 -126 -84 0 -98 35 -38 95 65 65 210 122 284 112 22 -3 39 -3 39 -1 0 2 -8 32 -17 65 -15 53 -19 60 -37 54 -12 -4 -43 -13 -71 -22 -94 -27 -252 0 -295 52 -13 16 -12 20 13 41 15 13 46 29 70 36 57 17 192 14 246 -5 l44 -16 -7 61 c-3 34 -6 71 -6 84 0 21 -3 22 -55 17 -56 -6 -154 10 -211 33 -46 19 -94 63 -94 85 0 59 185 64 306 9 70 -31 69 -32 77 30 3 19 7 42 9 50 1 8 -3 14 -10 12 -22 -4 -109 25 -158 54 -94 55 -172 157 -149 194 3 5 26 10 50 10 68 0 150 -43 226 -120 l65 -66 30 70 c16 38 30 73 32 76 1 4 -17 13 -40 21 -83 27 -218 196 -218 272 0 57 52 59 126 5 68 -48 154 -171 154 -218 0 -27 17 -25 31 3 7 12 25 38 40 57 l29 34 -30 31 c-91 94 -129 355 -51 355 54 0 141 -161 141 -262 0 -48 13 -48 70 2 39 35 43 42 33 57 -42 60 -61 189 -40 283 19 93 76 128 115 73z m-160 -588 c15 -14 32 -25 39 -25 6 0 14 -3 16 -7 3 -5 -26 -8 -63 -8 -43 0 -66 4 -62 10 26 40 37 55 40 55 2 0 15 -11 30 -25z m-105 -213 c15 -7 38 -12 50 -13 21 -1 2 -8 -72 -26 -14 -3 -36 -12 -50 -19 -14 -7 -26 -12 -28 -10 -2 1 6 26 18 55 19 45 24 50 38 38 9 -7 29 -19 44 -25z m60 -733 c-18 -16 -44 -45 -59 -64 -14 -19 -29 -35 -33 -35 -3 0 -16 18 -27 39 l-22 40 37 6 c20 4 56 17 81 30 25 13 47 21 50 19 2 -3 -10 -18 -27 -35z"
         id="path4391" />
      <g
         id="g4393">
        <path
           d="M780 2130 l-45 -39 61 -1 c34 0 76 -3 95 -7 l33 -6 -49 46 c-27 26 -49 47 -49 47 -1 0 -21 -18 -46 -40z"
           id="path4395" />
      </g>
    </g>
    <g
       id="g4397">
      <path
         d="M1542 2546 c-15 -78 -9 -96 29 -96 36 0 171 -35 219 -56 202 -91 289 -153 425 -305 117 -130 202 -299 246 -494 9 -39 14 -117 13 -220 -1 -203 -21 -292 -105 -470 -68 -142 -213 -311 -349 -406 -147 -102 -346 -180 -478 -188 -22 -1 -23 -3 -16 -78 4 -43 7 -79 8 -79 2 -3 124 16 161 25 61 14 214 71 249 92 17 10 47 26 66 35 121 60 348 269 413 383 12 20 31 50 42 66 20 27 33 54 80 160 21 46 41 111 65 210 30 120 33 394 6 495 -10 36 -22 83 -28 105 -29 112 -103 263 -181 374 -64 90 -173 206 -242 256 -22 17 -42 32 -45 35 -13 14 -115 74 -177 105 -62 30 -202 82 -244 90 -9 2 -34 8 -55 14 -22 6 -51 11 -65 11 -24 0 -26 -5 -37 -64z"
         id="path4399" />
    </g>
    <g
       id="g4401">
      <path
         d="M1504 2265 l-9 -75 35 -5 c19 -3 49 -10 66 -15 17 -6 36 -10 43 -10 24 0 167 -73 226 -115 122 -88 235 -230 283 -355 53 -141 57 -160 57 -310 -1 -133 -3 -152 -28 -225 -32 -90 -97 -225 -109 -225 -4 0 -8 -4 -8 -10 0 -13 -33 -52 -90 -110 -116 -117 -255 -192 -417 -224 -66 -13 -69 -18 -58 -102 6 -52 7 -54 37 -54 53 0 237 59 308 98 88 48 198 132 256 194 50 55 164 215 164 232 0 3 9 25 20 49 54 118 74 219 74 382 0 171 -18 256 -84 399 -28 62 -94 174 -109 186 -3 3 -23 26 -44 52 -37 46 -176 165 -206 176 -9 3 -18 8 -21 12 -8 10 -134 70 -172 81 -71 22 -144 40 -174 44 l-30 4 -10 -74z"
         id="path4403" />
    </g>
    <g
       id="g4405">
      <path
         d="M5260 1953 c-53 -21 -67 -110 -25 -156 21 -22 34 -27 75 -27 41 0 52 4 69 27 31 39 36 70 17 109 -21 46 -84 67 -136 47z"
         id="path4407" />
    </g>
    <g
       id="g4409">
      <path
         d="M3140 1525 l0 -425 110 0 110 0 0 165 0 165 88 0 c136 0 236 34 295 99 45 50 52 74 51 176 0 104 -18 142 -91 193 -63 44 -113 52 -345 52 l-218 0 0 -425z m383 253 c12 -6 28 -17 35 -25 17 -16 18 -99 2 -118 -17 -21 -75 -35 -142 -35 l-58 0 0 95 0 95 71 0 c39 0 80 -5 92 -12z"
         id="path4411" />
    </g>
    <g
       id="g4413">
      <path
         d="M4900 1794 l0 -156 -37 24 c-33 20 -51 23 -128 23 -98 0 -120 -9 -182 -71 -63 -63 -78 -107 -78 -229 0 -99 2 -114 24 -150 61 -102 133 -145 239 -145 67 0 134 18 147 40 10 17 25 11 25 -10 0 -19 7 -20 90 -20 l90 0 0 425 0 425 -95 0 -95 0 0 -156z m-40 -264 l40 -20 0 -120 c0 -119 0 -120 -27 -137 -42 -28 -125 -24 -159 8 -80 75 -68 220 24 268 48 26 73 26 122 1z"
         id="path4415" />
    </g>
    <g
       id="g4417">
      <path
         d="M5550 1525 l0 -425 105 0 105 0 0 261 c0 143 4 259 9 257 4 -1 37 -37 72 -78 35 -41 73 -84 84 -95 11 -12 51 -57 89 -100 39 -44 79 -89 91 -100 11 -11 45 -48 75 -83 l54 -63 85 3 86 3 3 423 2 422 -110 0 -110 0 0 -247 0 -248 -43 45 c-23 25 -76 83 -117 130 -41 46 -88 98 -104 114 -15 17 -62 70 -104 119 l-76 87 -98 0 -98 0 0 -425z"
         id="path4419" />
    </g>
    <g
       id="g4421">
      <path
         d="M6570 1525 l0 -425 290 0 290 0 0 80 0 80 -180 0 -180 0 0 100 0 100 170 0 170 0 0 80 0 80 -170 0 -170 0 0 85 0 85 164 0 c90 0 171 3 180 6 13 5 16 22 16 80 l0 74 -290 0 -290 0 0 -425z"
         id="path4423" />
    </g>
    <g
       id="g4425">
      <path
         d="M7210 1870 l0 -80 145 0 145 0 0 -345 0 -345 110 0 110 0 0 345 0 345 140 0 140 0 0 80 0 80 -395 0 -395 0 0 -80z"
         id="path4427" />
    </g>
    <g
       id="g4429">
      <path
         d="M1305 1706 c-123 -37 -196 -111 -235 -240 -27 -86 -7 -189 52 -277 33 -49 106 -105 154 -118 l29 -7 5 -530 5 -529 78 -3 77 -3 0 530 0 531 28 6 c124 29 232 175 232 314 0 44 -34 169 -49 180 -4 3 -17 19 -29 36 -65 93 -228 145 -347 110z m169 -116 c68 -26 109 -71 132 -145 16 -49 16 -61 4 -108 -22 -88 -60 -131 -145 -164 -98 -38 -223 15 -270 114 -57 119 -3 255 118 302 67 26 94 26 161 1z"
         id="path4431" />
    </g>
    <g
       id="g4433">
      <path
         d="M3995 1681 c-22 -4 -63 -19 -92 -32 l-51 -23 -7 -69 c-4 -37 -5 -71 -1 -74 3 -3 29 10 58 29 74 49 137 64 191 48 45 -13 66 -34 67 -66 0 -16 -10 -24 -42 -34 -100 -30 -126 -40 -180 -65 -79 -36 -118 -85 -118 -147 0 -109 55 -158 175 -158 65 0 99 10 148 43 15 10 27 14 27 8 0 -6 9 -20 20 -31 28 -28 120 -27 189 1 l51 22 0 53 c0 53 0 53 -24 42 -50 -22 -53 -13 -58 169 -5 192 -13 217 -80 259 -35 22 -54 27 -137 29 -53 2 -114 0 -136 -4z m163 -378 l-3 -68 -39 -18 c-23 -11 -49 -16 -63 -12 -31 7 -50 48 -37 81 11 32 83 75 137 83 4 0 7 -29 5 -66z"
         id="path4435" />
    </g>
    <g
       id="g4437">
      <path
         d="M5217 1673 c-4 -3 -7 -134 -7 -290 l0 -283 95 0 95 0 0 290 0 290 -88 0 c-49 0 -92 -3 -95 -7z"
         id="path4439" />
    </g>
    <g
       id="g4441">
      <path
         d="M4946 1004 c-9 -9 -15 -23 -12 -31 3 -8 6 -17 6 -19 0 -11 39 -2 50 12 11 13 10 18 -7 35 -19 19 -21 20 -37 3z"
         id="path4443" />
    </g>
    <g
       id="g4445">
      <path
         d="M7340 1005 c-19 -23 -8 -50 20 -50 16 0 26 6 28 18 4 18 -14 47 -28 47 -4 0 -13 -7 -20 -15z"
         id="path4447" />
    </g>
    <g
       id="g4449">
      <path
         d="M6860 875 l0 -135 30 0 30 0 0 135 0 135 -30 0 -30 0 0 -135z"
         id="path4451" />
    </g>
    <g
       id="g4453">
      <path
         d="M4477 932 c-40 -41 -45 -52 -22 -52 11 0 15 -11 15 -42 0 -24 3 -53 6 -65 12 -44 106 -49 112 -5 3 19 -1 22 -27 22 -30 0 -31 1 -31 45 0 43 1 45 30 45 25 0 30 4 30 25 0 21 -5 25 -30 25 -23 0 -30 4 -30 20 0 29 -11 25 -53 -18z"
         id="path4455" />
    </g>
    <g
       id="g4457">
      <path
         d="M5272 937 c-32 -33 -41 -57 -22 -57 6 0 10 -24 10 -52 0 -61 6 -73 40 -86 36 -13 74 0 78 26 3 19 -1 22 -27 22 -30 0 -31 1 -31 45 0 43 1 45 30 45 25 0 30 4 30 25 0 21 -5 25 -30 25 -23 0 -30 4 -30 20 0 28 -11 25 -48 -13z"
         id="path4459" />
    </g>
    <g
       id="g4461">
      <path
         d="M6232 937 c-32 -33 -41 -57 -22 -57 6 0 10 -24 10 -52 0 -61 6 -73 40 -86 36 -13 74 0 78 26 3 19 -1 22 -27 22 -30 0 -31 1 -31 45 0 43 1 45 30 45 25 0 30 4 30 25 0 21 -5 25 -30 25 -23 0 -30 4 -30 20 0 28 -11 25 -48 -13z"
         id="path4463" />
    </g>
    <g
       id="g4465">
      <path
         d="M7192 937 c-32 -33 -41 -57 -22 -57 6 0 10 -24 10 -53 0 -74 39 -107 100 -86 45 16 41 49 -5 49 -35 0 -35 0 -35 44 0 43 1 45 33 48 24 2 32 8 32 23 0 15 -8 21 -32 23 -25 2 -33 8 -33 23 0 27 -11 24 -48 -14z"
         id="path4467" />
    </g>
    <g
       id="g4469">
      <path
         d="M3101 899 c-56 -55 -35 -137 39 -156 48 -13 100 1 100 27 0 17 -7 20 -43 20 -46 0 -67 13 -67 41 0 31 30 52 67 46 29 -5 33 -3 33 18 0 47 -84 50 -129 4z"
         id="path4471" />
    </g>
    <g
       id="g4473">
      <path
         d="M3298 913 c-49 -31 -60 -79 -28 -130 22 -37 69 -54 114 -42 59 17 82 61 64 125 -16 58 -93 82 -150 47z m81 -47 c7 -8 11 -27 9 -43 -2 -23 -8 -28 -32 -28 -36 0 -52 33 -30 64 18 24 37 27 53 7z"
         id="path4475" />
    </g>
    <g
       id="g4477">
      <path
         d="M3480 835 l0 -95 30 0 c28 0 30 2 30 40 0 23 7 52 16 66 14 20 22 24 46 19 28 -7 29 -6 26 27 -4 44 -37 50 -67 12 l-21 -27 0 27 c0 22 -4 26 -30 26 l-30 0 0 -95z"
         id="path4479" />
    </g>
    <g
       id="g4481">
      <path
         d="M3650 789 l0 -139 30 0 c29 0 30 1 30 50 0 49 0 49 25 40 19 -7 36 -6 60 4 58 25 69 125 18 165 -18 15 -40 19 -93 19 l-70 0 0 -139z m123 70 c5 -9 7 -28 3 -42 -5 -22 -12 -27 -36 -27 -28 0 -30 2 -30 38 0 21 3 42 7 46 12 11 45 2 56 -15z"
         id="path4483" />
    </g>
    <g
       id="g4485">
      <path
         d="M3898 901 c-28 -25 -32 -34 -29 -72 2 -50 22 -76 65 -88 41 -10 86 3 114 34 33 39 29 80 -12 121 -45 45 -92 47 -138 5z m90 -30 c8 -5 12 -22 10 -42 -3 -30 -6 -34 -33 -34 -27 0 -30 4 -33 34 -3 32 9 51 33 51 6 0 16 -4 23 -9z"
         id="path4487" />
    </g>
    <g
       id="g4489">
      <path
         d="M4097 923 c-4 -3 -7 -46 -7 -95 l0 -88 35 0 35 0 0 55 c0 43 4 56 19 65 11 5 27 7 35 4 21 -8 43 45 24 58 -20 12 -44 9 -59 -8 -11 -14 -13 -14 -21 0 -9 16 -49 22 -61 9z"
         id="path4491" />
    </g>
    <g
       id="g4493">
      <path
         d="M4271 911 c-13 -10 -22 -25 -20 -34 4 -15 7 -15 36 0 32 15 63 13 63 -5 0 -5 -15 -15 -32 -22 -46 -19 -68 -39 -68 -65 0 -30 23 -48 58 -45 15 1 41 1 57 1 54 0 75 8 75 30 0 11 -4 18 -9 15 -5 -3 -11 22 -13 55 -3 45 -10 65 -23 75 -27 20 -95 17 -124 -5z m79 -111 c0 -19 -20 -27 -33 -13 -8 7 11 33 24 33 5 0 9 -9 9 -20z"
         id="path4495" />
    </g>
    <g
       id="g4497">
      <path
         d="M4648 912 c-41 -25 -51 -122 -15 -150 51 -40 159 -28 165 17 3 20 1 22 -15 16 -40 -18 -80 -17 -98 2 -18 17 -17 18 46 23 55 4 64 8 67 26 2 12 -9 34 -27 52 -34 37 -79 42 -123 14z m80 -45 c3 -13 -3 -17 -28 -17 -28 0 -30 2 -20 21 13 24 43 22 48 -4z"
         id="path4499" />
    </g>
    <g
       id="g4501">
      <path
         d="M4937 924 c-4 -4 -7 -47 -7 -96 l0 -88 35 0 36 0 -3 93 c-3 90 -3 92 -28 95 -14 2 -29 0 -33 -4z"
         id="path4503" />
    </g>
    <g
       id="g4505">
      <path
         d="M5030 835 l0 -95 30 0 c30 0 30 0 30 58 0 46 4 63 19 76 30 28 41 11 41 -65 l0 -69 30 0 30 0 0 78 c0 64 -4 82 -18 95 -21 19 -54 22 -83 7 -13 -7 -19 -7 -19 0 0 5 -13 10 -30 10 l-30 0 0 -95z"
         id="path4507" />
    </g>
    <g
       id="g4509">
      <path
         d="M5431 904 c-56 -47 -36 -144 35 -163 46 -13 114 5 114 30 0 16 -6 18 -45 12 -29 -4 -50 -1 -60 7 -28 23 -16 30 50 30 72 0 78 7 50 60 -29 56 -93 67 -144 24z m87 -34 c11 -19 10 -20 -23 -20 -37 0 -43 8 -23 28 17 17 31 15 46 -8z"
         id="path4511" />
    </g>
    <g
       id="g4513">
      <path
         d="M5620 835 l0 -95 30 0 c29 0 30 1 30 49 0 55 21 86 52 78 24 -7 47 41 26 55 -20 12 -40 10 -60 -9 -17 -15 -18 -15 -18 0 0 12 -9 17 -30 17 l-30 0 0 -95z"
         id="path4515" />
    </g>
    <g
       id="g4517">
      <path
         d="M5790 835 l0 -95 30 0 30 0 0 65 c0 53 3 66 19 74 27 15 31 5 31 -71 l0 -69 33 3 32 3 -2 78 c-1 53 -6 82 -17 92 -17 17 -67 20 -83 4 -8 -8 -13 -8 -17 0 -4 6 -18 11 -32 11 -24 0 -24 -1 -24 -95z"
         id="path4519" />
    </g>
    <g
       id="g4521">
      <path
         d="M6027 906 c-37 -35 -44 -72 -21 -115 25 -46 73 -64 133 -49 33 8 41 15 41 33 0 21 -2 22 -40 11 -42 -11 -69 -3 -78 22 -2 8 16 12 62 12 36 0 66 4 66 10 0 19 -25 65 -45 82 -30 26 -87 23 -118 -6z m81 -28 c19 -19 14 -28 -18 -28 -16 0 -30 4 -30 8 0 9 21 32 30 32 3 0 11 -5 18 -12z"
         id="path4523" />
    </g>
    <g
       id="g4525">
      <path
         d="M6486 911 c-29 -31 -17 -72 27 -95 49 -26 48 -40 -4 -32 -38 6 -40 5 -37 -16 7 -47 120 -43 132 5 10 40 -4 65 -45 81 -22 9 -37 21 -34 26 8 13 42 13 50 0 11 -18 25 -10 25 14 0 13 -7 27 -16 30 -32 12 -81 6 -98 -13z"
         id="path4527" />
    </g>
    <g
       id="g4529">
      <path
         d="M6661 904 c-27 -22 -31 -33 -31 -73 0 -34 5 -53 19 -65 45 -41 124 -36 160 10 72 91 -59 203 -148 128z m100 -45 c18 -34 -4 -71 -39 -67 -21 2 -28 9 -30 31 -6 52 46 79 69 36z"
         id="path4531" />
    </g>
    <g
       id="g4533">
      <path
         d="M6950 852 c0 -84 15 -114 56 -112 11 0 45 0 77 0 l58 0 -3 92 -3 93 -30 0 -30 0 -3 -67 c-2 -48 -7 -68 -18 -72 -16 -6 -46 6 -45 17 1 4 1 34 1 67 l0 60 -30 0 -30 0 0 -78z"
         id="path4535" />
    </g>
    <g
       id="g4537">
      <path
         d="M7330 835 l0 -95 30 0 30 0 0 95 0 95 -30 0 -30 0 0 -95z"
         id="path4539" />
    </g>
    <g
       id="g4541">
      <path
         d="M7458 913 c-29 -18 -38 -39 -38 -89 0 -82 118 -117 176 -53 13 14 19 36 19 66 0 38 -5 49 -30 69 -36 28 -88 31 -127 7z m91 -55 c14 -39 2 -68 -29 -68 -28 0 -40 15 -40 49 0 41 55 56 69 19z"
         id="path4543" />
    </g>
    <g
       id="g4545">
      <path
         d="M7647 923 c-4 -3 -7 -46 -7 -95 l0 -89 33 3 c32 3 32 3 35 63 2 41 8 64 19 72 29 22 43 -3 43 -73 l0 -64 30 0 30 0 0 73 c0 88 -16 117 -64 117 -17 0 -38 -6 -45 -12 -11 -10 -14 -10 -18 0 -5 13 -45 17 -56 5z"
         id="path4547" />
    </g>
    <g
       id="g4549">
      <path
         d="M7876 911 c-29 -31 -17 -72 27 -95 49 -26 48 -40 -4 -32 -38 6 -40 5 -37 -16 4 -31 56 -43 103 -24 31 13 35 19 35 51 0 33 -4 38 -46 57 -34 15 -43 23 -35 31 8 8 19 8 41 0 28 -10 30 -10 30 12 0 12 -7 26 -16 29 -32 12 -81 6 -98 -13z"
         id="path4551" />
    </g>
  </g>
  <path
     style="fill:#ffff00;fill-opacity:1;fill-rule:evenodd;stroke:#ffff00;stroke-width:0;stroke-linejoin:bevel;stroke-miterlimit:4;stroke-dasharray:none;stroke-opacity:1"
     d="m 52.460188,277.25835 c -3.345743,-7.34311 15.356908,-29.55538 27.973829,-33.22321 4.65191,-1.35235 4.860778,-2.29201 1.536344,-6.9118 -3.244881,-4.50924 -9.463429,-12.0477 -9.979143,-12.09726 -0.234382,-0.0225 -1.324395,1.60942 -2.422248,3.62654 -6.74708,12.3966 -31.473307,26.49203 -39.209496,22.35175 -3.839543,-2.05486 -0.719747,-9.71254 6.73137,-16.52243 7.598847,-6.94493 15.951264,-11.50931 24.784617,-13.54417 2.625735,-0.60488 5.039588,-1.35895 5.364117,-1.67573 0.32453,-0.31679 0.06415,-1.83533 -0.578617,-3.37453 -1.127396,-2.69972 -7.513844,-13.97376 -7.915768,-13.97376 -0.108347,0 -2.429711,2.1954 -5.158587,4.87865 -8.028701,7.89449 -19.390855,12.95088 -30.710049,13.66661 -12.776987,0.80789 -14.6630781,-3.33135 -5.382739,-11.81306 4.569418,-4.17619 11.504865,-7.98645 19.595505,-10.76556 4.619032,-1.58663 7.109293,-1.9893 12.502859,-2.02172 l 6.735016,-0.0405 -0.418923,-2.61979 c -0.767376,-4.7989 -3.385699,-12.26436 -4.44383,-12.6704 -0.574405,-0.22042 -4.206012,0.51111 -8.070238,1.62561 -11.922606,3.4387 -26.635758,2.35398 -35.2990581,-2.60241 -5.0774013,-2.90484 -5.7500137,-4.29217 -3.2387519,-6.68022 3.6517952,-3.47263 8.887147,-5.51037 16.065121,-6.253 8.120548,-0.84014 19.043405,0.0601 24.958546,2.05704 2.295372,0.77492 4.280004,1.30233 4.410293,1.17205 0.130289,-0.13029 -0.163832,-4.8107 -0.653604,-10.40089 l -0.890492,-10.16397 -8.351901,-0.009 c -9.554515,-0.0108 -19.532214,-1.78086 -25.537965,-4.53038 -5.0900086,-2.33028 -10.7748636,-7.72692 -10.450381,-9.92056 1.0423252,-7.04654 21.641987,-7.42186 37.478442,-0.68284 5.166036,2.19834 8.127186,2.70072 8.866632,1.50427 0.674817,-1.09187 2.516792,-12.5244 2.12106,-13.16471 -0.201764,-0.32646 -1.124625,-0.59357 -2.050801,-0.59357 -2.921235,0 -11.350795,-2.91552 -17.336927,-5.99631 -9.826294,-5.05713 -21.17254,-17.809498 -20.420863,-22.951581 0.304022,-2.079762 3.378589,-2.966821 8.428685,-2.431803 8.199692,0.868695 16.03826,5.493187 26.401906,15.576244 4.042886,3.93343 7.572585,7.15169 7.843776,7.15169 0.27119,0 0.782932,-0.73 1.137204,-1.62221 0.354271,-0.89221 2.122924,-5.12167 3.930339,-9.39879 l 3.28621,-7.776588 -5.455311,-2.486063 C 44.078418,85.315231 26.827302,60.171603 33.000456,54.584977 c 4.228701,-3.826923 14.631636,2.104384 23.613764,13.463556 5.161113,6.526957 8.560263,12.587094 9.255094,16.500346 0.881385,4.963908 1.19646,4.772473 8.614587,-5.234088 L 79.050916,73.15418 75.559993,69.357644 C 69.72366,63.010373 65.835078,53.389784 64.119061,41.052084 62.809585,31.637302 65.21215,24.485012 69.336476,25.520151 c 6.468362,1.623455 16.419033,20.788435 16.419033,31.623029 0,1.750532 0.431233,3.772537 0.958306,4.493343 1.195977,1.635603 2.731218,0.942835 8.242429,-3.719363 5.466546,-4.624414 5.591956,-5.049018 3.0676,-10.386759 C 94.601695,40.294278 93.46269,33.757327 93.85313,23.593983 94.242863,13.448965 95.957744,7.7782335 99.550066,4.7554995 c 4.032184,-3.392861 7.322454,-1.8167619 10.444754,5.0032179 3.30957,7.2290726 4.15917,19.3126896 2.05961,29.2936276 -0.60511,2.876594 -0.82246,5.497202 -0.48401,5.835656 1.34834,1.348338 4.33186,-2.330556 5.81779,-7.173741 5.12025,-16.68877 26.59386,-34.9640002 33.25555,-28.3023097 5.13482,5.1348207 -4.72111,23.0834727 -18.44964,33.5986787 -2.9385,2.250706 -5.34272,4.199011 -5.34272,4.329566 0,0.130555 2.83886,1.092805 6.30858,2.138335 9.48179,2.857146 14.79567,5.618771 18.155,9.435175 3.35695,3.813696 3.59395,5.142098 1.30163,7.295619 -4.1637,3.911604 -12.09253,5.180701 -21.75264,3.481757 -3.54292,-0.623098 -6.62511,-0.939443 -6.84932,-0.702989 -0.22422,0.236455 0.88888,1.447299 2.47353,2.690767 9.95013,7.807778 10.75643,11.396256 3.03445,13.504793 -3.38579,0.924513 -15.16049,0.463417 -21.50254,-0.842041 C 102.00148,83.102736 92.520188,78.244286 88.947643,74.568403 86.129085,71.668319 85.683469,71.448404 84.328285,72.288707 82.737477,73.275115 74.300289,83.639405 72.85983,86.376622 l -0.853685,1.622206 12.851541,0 c 14.089712,0 18.590644,0.738169 25.341214,4.156035 10.70499,5.420029 7.60169,11.149577 -7.12309,13.151207 -10.801173,1.46827 -22.366977,-0.45343 -30.89351,-5.13306 -6.261429,-3.436467 -5.848875,-3.680721 -9.88157,5.85033 -3.076676,7.27155 -5.108766,14.21464 -4.375059,14.94834 0.289116,0.28912 1.559155,-0.0855 2.822309,-0.83248 10.043609,-5.93938 16.846613,-7.62703 30.744977,-7.62703 8.441838,0 9.550563,0.14742 10.845103,1.44196 2.10073,2.10073 1.78395,3.94119 -1.26171,7.33026 -3.144626,3.49919 -11.538765,7.6945 -19.286234,9.63906 -6.279755,1.57617 -16.591901,1.64295 -22.169937,0.14355 -2.279983,-0.61287 -4.322056,-0.8285 -4.537941,-0.4792 -0.465056,0.75248 -2.491834,16.66862 -2.491834,19.56819 0,1.10556 0.365439,2.01011 0.812086,2.01011 0.446646,0 3.539183,-1.67239 6.872303,-3.71641 9.100812,-5.58105 16.263903,-7.92823 25.480716,-8.34946 6.977361,-0.31887 7.725588,-0.22285 9.552992,1.2259 1.090483,0.86454 1.982697,2.1219 1.982697,2.79415 0,7.91402 -26.481932,21.25039 -39.550362,19.91767 l -4.582806,-0.46736 0.50454,3.85075 c 0.916681,6.9963 3.347598,18.98023 3.982191,19.63141 0.358279,0.36764 2.867682,-1.41642 5.895741,-4.19159 12.870811,-11.79586 31.076312,-18.94984 35.913637,-14.11251 1.804171,1.80417 1.798581,2.41297 -0.05732,6.24676 -4.080591,8.42934 -23.683014,21.1505 -32.591484,21.1505 -1.322003,0 -3.012284,0.44505 -3.75618,0.989 -1.298959,0.94982 -1.303554,1.11404 -0.116006,4.14563 2.287248,5.83893 7.311433,14.69052 8.458059,14.90138 0.721409,0.13267 2.326621,-1.5797 4.393109,-4.68637 6.794817,-10.21504 16.03703,-18.36897 23.988227,-21.16359 4.841226,-1.70156 6.087496,-1.73421 8.254706,-0.21623 1.41141,0.98859 1.6239,1.62877 1.31215,3.95313 -0.89492,6.67207 -8.52891,17.27644 -17.142422,23.81251 -5.543129,4.20623 -10.641132,7.10376 -12.498529,7.10376 -2.342819,0 -1.8138,1.71512 1.95421,6.33569 7.424586,9.1045 10.981911,12.69099 12.145069,12.24465 0.608507,-0.23351 1.534311,-1.99519 2.057339,-3.91485 3.12757,-11.47897 11.633593,-23.50196 21.098943,-29.82267 5.01962,-3.35198 7.2152,-3.60906 8.89734,-1.0418 3.09249,4.71973 -1.74575,18.4931 -9.99576,28.45565 -2.16121,2.60984 -6.33528,6.38269 -9.42015,8.51467 -3.04664,2.10556 -5.53934,3.9505 -5.53934,4.09986 0,0.14935 2.67664,2.04186 5.94809,4.20556 12.25536,8.10557 28.82041,15.17519 41.71417,17.80278 7.86641,1.60307 8.57422,1.84335 8.57422,2.91067 0,1.2246 -5.73627,0.71157 -13.20105,-1.18065 -16.38379,-4.15308 -32.96933,-12.21625 -46.212966,-22.46675 -2.738998,-2.11996 -5.461976,-3.7594 -6.05106,-3.6432 -1.172314,0.23125 -1.131687,0.1648 -4.5208,7.39397 -1.75026,3.73341 -3.84664,6.51522 -8.180837,10.8556 -8.679878,8.69226 -16.606304,13.32436 -22.800609,13.32436 -2.376546,0 -3.029307,-0.31718 -3.705072,-1.80032 z M 115.31571,66.525029 c 0,-0.525577 -4.47358,-4.974147 -9.87518,-9.81996 l -2.30488,-2.067729 -5.742499,4.964811 -5.742494,4.96481 3.000512,0.487294 c 1.650288,0.268012 5.758271,0.549729 9.128851,0.626038 3.37059,0.07631 7.10166,0.386413 8.29128,0.689119 3.0602,0.77869 3.24441,0.787525 3.24441,0.155617 z"
     id="path4561"
     inkscape:connector-curvature="0"
     transform="scale(0.8,0.8)" />
</svg>
